<?xml version="1.0" encoding="UTF-8" standalone="no"?>
<svg
   xmlns:dc="http://purl.org/dc/elements/1.1/"
   xmlns:cc="http://creativecommons.org/ns#"
   xmlns:rdf="http://www.w3.org/1999/02/22-rdf-syntax-ns#"
   xmlns:svg="http://www.w3.org/2000/svg"
   xmlns="http://www.w3.org/2000/svg"
   viewBox="0 0 631 176"
   height="176"
   width="631"
   xml:space="preserve"
   id="svg2"
   version="1.1"><metadata
     id="metadata8"><rdf:RDF><cc:Work
         rdf:about=""><dc:format>image/svg+xml</dc:format><dc:type
           rdf:resource="http://purl.org/dc/dcmitype/StillImage" /></cc:Work></rdf:RDF></metadata><defs
     id="defs6"><clipPath
       id="clipPath18"
       clipPathUnits="userSpaceOnUse"><path
         id="path16"
         d="M 0,163.492 H 529.473 V 0 H 0 Z" /></clipPath></defs><g
     transform="matrix(1.3333333, 0, 0, -1.3333333, -45, 196.98933)"
     id="g10"><g
       id="g12"><g
         clip-path="url(#clipPath18)"
         id="g14"><g
           transform="translate(123.2729,80.1289)"
           id="g20"><path
             id="path22"
             style="fill:#ffffff;fill-opacity:1;fill-rule:nonzero;stroke:none"
             d="m 0,0 c -3.326,0.416 -6.648,-1.203 -8.783,-3.932 l -8.082,1.003 c -25.673,3.181 -39.674,-3.461 -48.21,-9.103 -11.19,-7.394 -18.106,-18.822 -18.053,-29.824 0.041,-8.491 4.234,-15.286 11.215,-18.176 1.974,-0.817 3.953,-1.348 5.93,-1.592 4.667,-0.578 9.279,0.445 13.58,3.047 8.144,4.931 14.636,15.463 17.361,28.17 l 2.595,12.09 c -3.873,-0.125 -7.07,-0.555 -9.544,-1.037 l -2.129,-9.928 c -2.059,-9.59 -6.747,-17.608 -12.23,-20.928 -3.476,-2.105 -7.291,-2.322 -11.346,-0.643 -3.862,1.602 -6.092,5.291 -6.114,10.133 -0.025,5.75 3.381,14.167 13.036,20.547 4.837,3.199 17.91,10.474 40.159,7.714 2.803,-0.347 10.058,-1.248 10.058,-1.248 1.018,-2.801 3.375,-4.866 6.483,-5.25 4.885,-0.606 9.754,3.148 10.879,8.383 C 7.928,-5.34 4.881,-0.605 0,0" /></g><g
           transform="translate(123.2729,80.1289)"
           id="g24"><path
             id="path26"
             style="fill:none;stroke:#ffffff;stroke-width:1;stroke-linecap:butt;stroke-linejoin:miter;stroke-miterlimit:10;stroke-dasharray:none;stroke-opacity:1"
             d="m 0,0 c -3.326,0.416 -6.648,-1.203 -8.783,-3.932 l -8.082,1.003 c -25.673,3.181 -39.674,-3.461 -48.21,-9.103 -11.19,-7.394 -18.106,-18.822 -18.053,-29.824 0.041,-8.491 4.234,-15.286 11.215,-18.176 1.974,-0.817 3.953,-1.348 5.93,-1.592 4.667,-0.578 9.279,0.445 13.58,3.047 8.144,4.931 14.636,15.463 17.361,28.17 l 2.595,12.09 c -3.873,-0.125 -7.07,-0.555 -9.544,-1.037 l -2.129,-9.928 c -2.059,-9.59 -6.747,-17.608 -12.23,-20.928 -3.476,-2.105 -7.291,-2.322 -11.346,-0.643 -3.862,1.602 -6.092,5.291 -6.114,10.133 -0.025,5.75 3.381,14.167 13.036,20.547 4.837,3.199 17.91,10.474 40.159,7.714 2.803,-0.347 10.058,-1.248 10.058,-1.248 1.018,-2.801 3.375,-4.866 6.483,-5.25 4.885,-0.606 9.754,3.148 10.879,8.383 C 7.928,-5.34 4.881,-0.605 0,0 Z" /></g><g
           transform="translate(105.8335,116.2051)"
           id="g28"><path
             id="path30"
             style="fill:#ffffff;fill-opacity:1;fill-rule:nonzero;stroke:none"
             d="m 0,0 c 0.164,5.249 -3.757,9.172 -8.759,8.756 -5.002,-0.418 -9.188,-5.01 -9.35,-10.26 -0.074,-2.416 0.721,-4.541 2.08,-6.101 -2.39,-3.877 -5.76,-7.553 -9.921,-10.579 -11.678,-8.484 -25.078,-8.599 -30.291,0.125 -5.215,8.727 0.412,22.362 12.09,30.848 11.675,8.486 24.98,8.609 30.194,-0.115 0.012,-0.022 0.022,-0.041 0.032,-0.059 1.66,0.863 3.468,1.422 5.359,1.578 2.086,0.172 4.037,-0.171 5.774,-0.906 -0.463,2.074 -1.215,4.041 -2.293,5.85 -7.403,12.39 -26.846,12.664 -43.416,0.61 -16.582,-12.053 -24.018,-31.869 -16.614,-44.263 7.403,-12.388 26.843,-12.662 43.419,-0.611 1.532,1.116 2.988,2.298 4.359,3.535 -2.159,-10.08 -2.321,-10.844 -2.321,-10.844 2.877,0.202 6.043,0.321 9.434,0.31 0,0 2.881,13.39 4.996,23.237 C -2.236,-7.076 -0.115,-3.705 0,0" /></g><g
           transform="translate(105.8335,116.2051)"
           id="g32"><path
             id="path34"
             style="fill:none;stroke:#ffffff;stroke-width:1;stroke-linecap:butt;stroke-linejoin:miter;stroke-miterlimit:10;stroke-dasharray:none;stroke-opacity:1"
             d="m 0,0 c 0.164,5.249 -3.757,9.172 -8.759,8.756 -5.002,-0.418 -9.188,-5.01 -9.35,-10.26 -0.074,-2.416 0.721,-4.541 2.08,-6.101 -2.39,-3.877 -5.76,-7.553 -9.921,-10.579 -11.678,-8.484 -25.078,-8.599 -30.291,0.125 -5.215,8.727 0.412,22.362 12.09,30.848 11.675,8.486 24.98,8.609 30.194,-0.115 0.012,-0.022 0.022,-0.041 0.032,-0.059 1.66,0.863 3.468,1.422 5.359,1.578 2.086,0.172 4.037,-0.171 5.774,-0.906 -0.463,2.074 -1.215,4.041 -2.293,5.85 -7.403,12.39 -26.846,12.664 -43.416,0.61 -16.582,-12.053 -24.018,-31.869 -16.614,-44.263 7.403,-12.388 26.843,-12.662 43.419,-0.611 1.532,1.116 2.988,2.298 4.359,3.535 -2.159,-10.08 -2.321,-10.844 -2.321,-10.844 2.877,0.202 6.043,0.321 9.434,0.31 0,0 2.881,13.39 4.996,23.237 C -2.236,-7.076 -0.115,-3.705 0,0 Z" /></g><g
           transform="translate(167.0767,86.2412)"
           id="g36"><path
             id="path38"
             style="fill:#ffffff;fill-opacity:1;fill-rule:nonzero;stroke:none"
             d="m 0,0 v 16.839 c -1.828,0.627 -3.915,0.939 -6.265,0.939 -3.186,0 -5.627,-1.174 -7.322,-3.524 -1.698,-2.349 -2.545,-5.534 -2.545,-9.554 0,-8.252 2.714,-12.375 8.143,-12.375 2.244,0 4.139,0.694 5.678,2.076 C -0.771,-4.216 0,-2.349 0,0 m 3.916,-28.663 c -2.874,-2.714 -7.36,-4.071 -13.471,-4.071 -6.107,0 -10.886,0.861 -14.33,2.585 v 10.884 l 7.438,0.627 v -3.759 c 0,-1.409 0.652,-2.362 1.959,-2.86 1.305,-0.496 3.105,-0.742 5.405,-0.742 3.338,0 5.689,1.006 7.047,3.013 1.356,2.012 2.036,4.844 2.036,8.5 v 4.307 c -2.506,-2.924 -5.979,-4.385 -10.415,-4.385 -2.715,0 -5.105,0.522 -7.167,1.563 -2.063,1.046 -3.667,2.455 -4.815,4.23 -2.245,3.551 -3.369,7.727 -3.369,12.532 0,6.838 1.852,12.021 5.561,15.545 3.706,3.523 8.639,5.287 14.802,5.287 5.116,0 9.945,-0.967 14.488,-2.899 V -7.36 c 0,-4.44 -0.054,-7.286 -0.157,-8.537 -0.47,-5.797 -2.142,-10.05 -5.012,-12.766" /></g><g
           transform="translate(167.0767,86.2412)"
           id="g40"><path
             id="path42"
             style="fill:none;stroke:#ffffff;stroke-width:1;stroke-linecap:butt;stroke-linejoin:miter;stroke-miterlimit:10;stroke-dasharray:none;stroke-opacity:1"
             d="m 0,0 v 16.839 c -1.828,0.627 -3.915,0.939 -6.265,0.939 -3.186,0 -5.627,-1.174 -7.322,-3.524 -1.698,-2.349 -2.545,-5.534 -2.545,-9.554 0,-8.252 2.714,-12.375 8.143,-12.375 2.244,0 4.139,0.694 5.678,2.076 C -0.771,-4.216 0,-2.349 0,0 Z m 3.916,-28.663 c -2.874,-2.714 -7.36,-4.071 -13.471,-4.071 -6.107,0 -10.886,0.861 -14.33,2.585 v 10.884 l 7.438,0.627 v -3.759 c 0,-1.409 0.652,-2.362 1.959,-2.86 1.305,-0.496 3.105,-0.742 5.405,-0.742 3.338,0 5.689,1.006 7.047,3.013 1.356,2.012 2.036,4.844 2.036,8.5 v 4.307 c -2.506,-2.924 -5.979,-4.385 -10.415,-4.385 -2.715,0 -5.105,0.522 -7.167,1.563 -2.063,1.046 -3.667,2.455 -4.815,4.23 -2.245,3.551 -3.369,7.727 -3.369,12.532 0,6.838 1.852,12.021 5.561,15.545 3.706,3.523 8.639,5.287 14.802,5.287 5.116,0 9.945,-0.967 14.488,-2.899 V -7.36 c 0,-4.44 -0.054,-7.286 -0.157,-8.537 -0.47,-5.797 -2.142,-10.05 -5.012,-12.766 z" /></g><g
           transform="translate(187.0464,79.0371)"
           id="g44"><path
             id="path46"
             style="fill:#ffffff;fill-opacity:1;fill-rule:nonzero;stroke:none"
             d="m 0,0 v 21.693 c 0,0.835 -0.145,1.423 -0.431,1.764 -0.286,0.338 -0.796,0.532 -1.527,0.586 l -3.289,0.234 v 6.344 H 7.99 v -5.875 c 0.938,2.037 2.4,3.721 4.384,5.055 1.983,1.331 4.269,1.996 6.854,1.996 2.584,0 5.051,-0.576 7.399,-1.725 v -11.67 l -7.283,-0.547 v 3.603 c 0,1.044 -0.261,1.695 -0.782,1.958 -0.576,0.26 -1.282,0.393 -2.115,0.393 -2.09,0 -3.799,-0.747 -5.131,-2.232 C 9.985,20.088 9.321,18.194 9.321,15.898 V -2.271 l 6.811,-0.313 V -8.771 H -4.855 v 5.952 l 2.584,0.235 c 0.783,0.104 1.358,0.324 1.721,0.666 C -0.184,-1.579 0,-0.939 0,0" /></g><g
           transform="translate(187.0464,79.0371)"
           id="g48"><path
             id="path50"
             style="fill:none;stroke:#ffffff;stroke-width:1;stroke-linecap:butt;stroke-linejoin:miter;stroke-miterlimit:10;stroke-dasharray:none;stroke-opacity:1"
             d="m 0,0 v 21.693 c 0,0.835 -0.145,1.423 -0.431,1.764 -0.286,0.338 -0.796,0.532 -1.527,0.586 l -3.289,0.234 v 6.344 H 7.99 v -5.875 c 0.938,2.037 2.4,3.721 4.384,5.055 1.983,1.331 4.269,1.996 6.854,1.996 2.584,0 5.051,-0.576 7.399,-1.725 v -11.67 l -7.283,-0.547 v 3.603 c 0,1.044 -0.261,1.695 -0.782,1.958 -0.576,0.26 -1.282,0.393 -2.115,0.393 -2.09,0 -3.799,-0.747 -5.131,-2.232 C 9.985,20.088 9.321,18.194 9.321,15.898 V -2.271 l 6.811,-0.313 V -8.771 H -4.855 v 5.952 l 2.584,0.235 c 0.783,0.104 1.358,0.324 1.721,0.666 C -0.184,-1.579 0,-0.939 0,0 Z" /></g><g
           transform="translate(242.8853,82.7178)"
           id="g52"><path
             id="path54"
             style="fill:#ffffff;fill-opacity:1;fill-rule:nonzero;stroke:none"
             d="m 0,0 v 20.284 c -1.464,0.678 -3.473,1.018 -6.031,1.018 -3.497,0 -6.03,-1.409 -7.596,-4.229 -1.567,-2.82 -2.351,-6.552 -2.351,-11.198 0,-8.46 2.716,-12.688 8.147,-12.688 2.296,0 4.176,0.69 5.639,2.076 C -0.733,-3.354 0,-1.774 0,0 M 9.083,25.374 V -3.757 c 0,-0.838 0.146,-1.412 0.432,-1.725 0.286,-0.314 0.796,-0.497 1.528,-0.547 l 2.506,-0.158 v -6.265 H 1.096 v 4.543 L 0.86,-7.831 c -2.61,-3.76 -6.185,-5.639 -10.729,-5.639 -5.325,0 -9.267,1.696 -11.826,5.091 -2.557,3.393 -3.835,8.04 -3.835,13.939 0,7.099 1.723,12.634 5.168,16.603 3.446,3.969 8.613,5.953 15.505,5.953 4.437,0 9.086,-0.914 13.94,-2.742" /></g><g
           transform="translate(242.8853,82.7178)"
           id="g56"><path
             id="path58"
             style="fill:none;stroke:#ffffff;stroke-width:1;stroke-linecap:butt;stroke-linejoin:miter;stroke-miterlimit:10;stroke-dasharray:none;stroke-opacity:1"
             d="m 0,0 v 20.284 c -1.464,0.678 -3.473,1.018 -6.031,1.018 -3.497,0 -6.03,-1.409 -7.596,-4.229 -1.567,-2.82 -2.351,-6.552 -2.351,-11.198 0,-8.46 2.716,-12.688 8.147,-12.688 2.296,0 4.176,0.69 5.639,2.076 C -0.733,-3.354 0,-1.774 0,0 Z M 9.083,25.374 V -3.757 c 0,-0.838 0.146,-1.412 0.432,-1.725 0.286,-0.314 0.796,-0.497 1.528,-0.547 l 2.506,-0.158 v -6.265 H 1.096 v 4.543 L 0.86,-7.831 c -2.61,-3.76 -6.185,-5.639 -10.729,-5.639 -5.325,0 -9.267,1.696 -11.826,5.091 -2.557,3.393 -3.835,8.04 -3.835,13.939 0,7.099 1.723,12.634 5.168,16.603 3.446,3.969 8.613,5.953 15.505,5.953 4.437,0 9.086,-0.914 13.94,-2.742 z" /></g><g
           transform="translate(287.2886,90.1582)"
           id="g60"><path
             id="path62"
             style="fill:#ffffff;fill-opacity:1;fill-rule:nonzero;stroke:none"
             d="m 0,0 c 0,8.719 -2.637,13.078 -7.908,13.078 -2.195,0 -4.063,-0.664 -5.602,-1.996 -1.541,-1.332 -2.31,-2.91 -2.31,-4.737 V -11.67 c 1.984,-1.305 4.399,-1.957 7.245,-1.957 2.845,0 4.984,1.305 6.421,3.914 C -0.72,-7.101 0,-3.865 0,0 m -24.826,-27.332 v 37.904 c 0,0.887 -0.144,1.5 -0.431,1.842 -0.289,0.338 -0.796,0.508 -1.527,0.508 l -3.288,0.234 V 19.5 h 13.233 v -5.091 c 0.835,1.568 2.352,3.002 4.543,4.308 2.193,1.304 4.804,1.959 7.832,1.959 9.45,0 14.176,-6.632 14.176,-19.893 0,-7.049 -1.543,-12.453 -4.621,-16.211 -3.081,-3.759 -7.257,-5.64 -12.532,-5.64 -3.132,0 -5.927,0.757 -8.379,2.273 v -10.809 l 6.343,-0.312 v -6.188 h -20.205 v 5.953 l 2.584,0.235 c 0.784,0.104 1.357,0.325 1.726,0.666 0.362,0.34 0.546,0.978 0.546,1.918" /></g><g
           transform="translate(287.2886,90.1582)"
           id="g64"><path
             id="path66"
             style="fill:none;stroke:#ffffff;stroke-width:1;stroke-linecap:butt;stroke-linejoin:miter;stroke-miterlimit:10;stroke-dasharray:none;stroke-opacity:1"
             d="m 0,0 c 0,8.719 -2.637,13.078 -7.908,13.078 -2.195,0 -4.063,-0.664 -5.602,-1.996 -1.541,-1.332 -2.31,-2.91 -2.31,-4.737 V -11.67 c 1.984,-1.305 4.399,-1.957 7.245,-1.957 2.845,0 4.984,1.305 6.421,3.914 C -0.72,-7.101 0,-3.865 0,0 Z m -24.826,-27.332 v 37.904 c 0,0.887 -0.144,1.5 -0.431,1.842 -0.289,0.338 -0.796,0.508 -1.527,0.508 l -3.288,0.234 V 19.5 h 13.233 v -5.091 c 0.835,1.568 2.352,3.002 4.543,4.308 2.193,1.304 4.804,1.959 7.832,1.959 9.45,0 14.176,-6.632 14.176,-19.893 0,-7.049 -1.543,-12.453 -4.621,-16.211 -3.081,-3.759 -7.257,-5.64 -12.532,-5.64 -3.132,0 -5.927,0.757 -8.379,2.273 v -10.809 l 6.343,-0.312 v -6.188 h -20.205 v 5.953 l 2.584,0.235 c 0.784,0.104 1.357,0.325 1.726,0.666 0.362,0.34 0.546,0.978 0.546,1.918 z" /></g><g
           transform="translate(304.2065,79.0371)"
           id="g68"><path
             id="path70"
             style="fill:#ffffff;fill-opacity:1;fill-rule:nonzero;stroke:none"
             d="m 0,0 v 38.141 c 0,0.834 -0.147,1.41 -0.434,1.722 -0.287,0.311 -0.795,0.495 -1.526,0.547 l -2.742,0.156 v 6.502 H 9.236 V 26.001 c 2.717,3.862 6.53,5.796 11.436,5.796 3.97,0 7.036,-1.137 9.202,-3.408 2.165,-2.27 3.251,-5.678 3.251,-10.219 V -2.271 l 4.464,-0.235 V -8.771 H 18.948 v 5.952 l 2.586,0.235 c 0.782,0.104 1.358,0.324 1.723,0.666 0.366,0.339 0.548,0.979 0.548,1.918 v 16.134 c 0,2.714 -0.431,4.803 -1.289,6.264 -0.863,1.461 -2.535,2.193 -5.016,2.193 -2.48,0 -4.464,-0.771 -5.949,-2.31 C 10.062,20.74 9.316,18.875 9.316,16.684 V -2.271 l 4.465,-0.235 V -8.771 H -4.856 v 5.952 l 2.583,0.235 c 0.782,0.104 1.357,0.324 1.723,0.666 C -0.186,-1.579 0,-0.939 0,0" /></g><g
           transform="translate(304.2065,79.0371)"
           id="g72"><path
             id="path74"
             style="fill:none;stroke:#ffffff;stroke-width:1;stroke-linecap:butt;stroke-linejoin:miter;stroke-miterlimit:10;stroke-dasharray:none;stroke-opacity:1"
             d="m 0,0 v 38.141 c 0,0.834 -0.147,1.41 -0.434,1.722 -0.287,0.311 -0.795,0.495 -1.526,0.547 l -2.742,0.156 v 6.502 H 9.236 V 26.001 c 2.717,3.862 6.53,5.796 11.436,5.796 3.97,0 7.036,-1.137 9.202,-3.408 2.165,-2.27 3.251,-5.678 3.251,-10.219 V -2.271 l 4.464,-0.235 V -8.771 H 18.948 v 5.952 l 2.586,0.235 c 0.782,0.104 1.358,0.324 1.723,0.666 0.366,0.339 0.548,0.979 0.548,1.918 v 16.134 c 0,2.714 -0.431,4.803 -1.289,6.264 -0.863,1.461 -2.535,2.193 -5.016,2.193 -2.48,0 -4.464,-0.771 -5.949,-2.31 C 10.062,20.74 9.316,18.875 9.316,16.684 V -2.271 l 4.465,-0.235 V -8.771 H -4.856 v 5.952 l 2.583,0.235 c 0.782,0.104 1.357,0.324 1.723,0.666 C -0.186,-1.579 0,-0.939 0,0 Z" /></g><g
           transform="translate(360.5913,109.6582)"
           id="g76"><path
             id="path78"
             style="fill:#ffffff;fill-opacity:1;fill-rule:nonzero;stroke:none"
             d="m 0,0 v -32.891 l 4.465,-0.235 v -6.267 h -18.643 v 5.953 l 2.586,0.235 c 1.514,0.156 2.27,0.99 2.27,2.508 v 21.769 c 0,0.887 -0.145,1.489 -0.43,1.802 -0.287,0.314 -0.795,0.47 -1.525,0.47 L -14.02,-6.5 V 0 Z" /></g><g
           transform="translate(360.5913,109.6582)"
           id="g80"><path
             id="path82"
             style="fill:none;stroke:#ffffff;stroke-width:1;stroke-linecap:butt;stroke-linejoin:miter;stroke-miterlimit:10;stroke-dasharray:none;stroke-opacity:1"
             d="m 0,0 v -32.891 l 4.465,-0.235 v -6.267 h -18.643 v 5.953 l 2.586,0.235 c 1.514,0.156 2.27,0.99 2.27,2.508 v 21.769 c 0,0.887 -0.145,1.489 -0.43,1.802 -0.287,0.314 -0.795,0.47 -1.525,0.47 L -14.02,-6.5 V 0 Z" /></g><g
           transform="translate(388.5483,103.707)"
           id="g84"><path
             id="path86"
             style="fill:#ffffff;fill-opacity:1;fill-rule:nonzero;stroke:none"
             d="m 0,0 c -1.252,0.471 -2.766,0.705 -4.543,0.705 -1.775,0 -3.197,-0.406 -4.268,-1.214 -1.07,-0.809 -1.605,-1.802 -1.605,-2.976 0,-1.177 0.195,-2.087 0.586,-2.74 0.392,-0.655 1.006,-1.214 1.844,-1.685 1.302,-0.681 2.871,-1.266 4.699,-1.762 1.824,-0.496 3.182,-0.887 4.07,-1.175 0.887,-0.286 1.998,-0.77 3.326,-1.448 1.334,-0.681 2.338,-1.41 3.018,-2.193 1.828,-1.932 2.74,-4.413 2.74,-7.441 0,-3.915 -1.422,-6.981 -4.267,-9.202 -2.848,-2.219 -6.461,-3.328 -10.846,-3.328 -6.369,0 -11.176,0.812 -14.412,2.429 v 10.885 l 7.051,0.548 v -3.758 c 0,-2.298 2.191,-3.448 6.578,-3.448 4.386,0 6.578,1.594 6.578,4.779 0,1.147 -0.379,2.087 -1.135,2.819 -0.758,0.73 -1.502,1.226 -2.234,1.489 -0.731,0.261 -1.604,0.522 -2.621,0.782 -1.018,0.262 -2.014,0.522 -2.977,0.783 -0.967,0.26 -2.01,0.614 -3.133,1.057 -1.125,0.443 -2.365,1.083 -3.719,1.919 -2.666,1.722 -3.994,4.607 -3.994,8.654 0,4.045 1.434,7.167 4.307,9.359 2.871,2.191 6.484,3.29 10.848,3.29 4.355,0 8.677,-1.046 12.957,-3.134 v -9.397 l -7.047,-0.55 v 3.289 C 1.801,-1.357 1.201,-0.469 0,0" /></g><g
           transform="translate(388.5483,103.707)"
           id="g88"><path
             id="path90"
             style="fill:none;stroke:#ffffff;stroke-width:1;stroke-linecap:butt;stroke-linejoin:miter;stroke-miterlimit:10;stroke-dasharray:none;stroke-opacity:1"
             d="m 0,0 c -1.252,0.471 -2.766,0.705 -4.543,0.705 -1.775,0 -3.197,-0.406 -4.268,-1.214 -1.07,-0.809 -1.605,-1.802 -1.605,-2.976 0,-1.177 0.195,-2.087 0.586,-2.74 0.392,-0.655 1.006,-1.214 1.844,-1.685 1.302,-0.681 2.871,-1.266 4.699,-1.762 1.824,-0.496 3.182,-0.887 4.07,-1.175 0.887,-0.286 1.998,-0.77 3.326,-1.448 1.334,-0.681 2.338,-1.41 3.018,-2.193 1.828,-1.932 2.74,-4.413 2.74,-7.441 0,-3.915 -1.422,-6.981 -4.267,-9.202 -2.848,-2.219 -6.461,-3.328 -10.846,-3.328 -6.369,0 -11.176,0.812 -14.412,2.429 v 10.885 l 7.051,0.548 v -3.758 c 0,-2.298 2.191,-3.448 6.578,-3.448 4.386,0 6.578,1.594 6.578,4.779 0,1.147 -0.379,2.087 -1.135,2.819 -0.758,0.73 -1.502,1.226 -2.234,1.489 -0.731,0.261 -1.604,0.522 -2.621,0.782 -1.018,0.262 -2.014,0.522 -2.977,0.783 -0.967,0.26 -2.01,0.614 -3.133,1.057 -1.125,0.443 -2.365,1.083 -3.719,1.919 -2.666,1.722 -3.994,4.607 -3.994,8.654 0,4.045 1.434,7.167 4.307,9.359 2.871,2.191 6.484,3.29 10.848,3.29 4.355,0 8.677,-1.046 12.957,-3.134 v -9.397 l -7.047,-0.55 v 3.289 C 1.801,-1.357 1.201,-0.469 0,0 Z" /></g><g
           transform="translate(410.4741,117.96)"
           id="g92"><path
             id="path94"
             style="fill:#ffffff;fill-opacity:1;fill-rule:nonzero;stroke:none"
             d="M 0,0 H 5.092 V -8.302 H 15.51 L 14.723,-14.88 H 5.092 v -20.598 c 0,-2.295 0.416,-3.902 1.252,-4.814 0.838,-0.914 2.131,-1.372 3.879,-1.372 1.748,0 3.511,0.55 5.287,1.645 l 2.349,-6.031 c -2.613,-1.824 -5.927,-2.739 -9.947,-2.739 -2.35,0 -4.334,0.3 -5.953,0.898 -1.617,0.601 -2.82,1.267 -3.602,1.999 -0.787,0.729 -1.384,1.801 -1.802,3.21 -0.418,1.411 -0.653,2.519 -0.703,3.329 -0.055,0.809 -0.079,1.998 -0.079,3.564 v 20.909 h -5.56 l 0.781,5.717 c 2.457,0.208 4.307,1.084 5.561,2.623 C -2.191,-4.999 -1.043,-2.819 0,0" /></g><g
           transform="translate(410.4741,117.96)"
           id="g96"><path
             id="path98"
             style="fill:none;stroke:#ffffff;stroke-width:1;stroke-linecap:butt;stroke-linejoin:miter;stroke-miterlimit:10;stroke-dasharray:none;stroke-opacity:1"
             d="M 0,0 H 5.092 V -8.302 H 15.51 L 14.723,-14.88 H 5.092 v -20.598 c 0,-2.295 0.416,-3.902 1.252,-4.814 0.838,-0.914 2.131,-1.372 3.879,-1.372 1.748,0 3.511,0.55 5.287,1.645 l 2.349,-6.031 c -2.613,-1.824 -5.927,-2.739 -9.947,-2.739 -2.35,0 -4.334,0.3 -5.953,0.898 -1.617,0.601 -2.82,1.267 -3.602,1.999 -0.787,0.729 -1.384,1.801 -1.802,3.21 -0.418,1.411 -0.653,2.519 -0.703,3.329 -0.055,0.809 -0.079,1.998 -0.079,3.564 v 20.909 h -5.56 l 0.781,5.717 c 2.457,0.208 4.307,1.084 5.561,2.623 C -2.191,-4.999 -1.043,-2.819 0,0 Z" /></g><g
           transform="translate(436.1616,79.0391)"
           id="g100"><path
             id="path102"
             style="fill:#ffffff;fill-opacity:1;fill-rule:nonzero;stroke:none"
             d="m 0,0 v 21.691 c 0,0.835 -0.143,1.423 -0.426,1.764 -0.291,0.338 -0.801,0.532 -1.529,0.586 l -3.291,0.236 v 6.342 H 7.992 v -5.873 c 0.938,2.037 2.399,3.721 4.385,5.053 1.982,1.331 4.268,1.997 6.852,1.997 2.585,0 5.05,-0.577 7.4,-1.726 V 18.402 l -7.283,-0.547 v 3.601 c 0,1.046 -0.262,1.696 -0.784,1.958 -0.576,0.26 -1.281,0.394 -2.115,0.394 -2.088,0 -3.797,-0.746 -5.131,-2.233 C 9.988,20.088 9.32,18.193 9.32,15.897 V -2.271 l 6.817,-0.314 V -8.773 H -4.852 v 5.953 l 2.582,0.235 c 0.784,0.103 1.358,0.325 1.725,0.665 C -0.18,-1.581 0,-0.939 0,0" /></g><g
           transform="translate(436.1616,79.0391)"
           id="g104"><path
             id="path106"
             style="fill:none;stroke:#ffffff;stroke-width:1;stroke-linecap:butt;stroke-linejoin:miter;stroke-miterlimit:10;stroke-dasharray:none;stroke-opacity:1"
             d="m 0,0 v 21.691 c 0,0.835 -0.143,1.423 -0.426,1.764 -0.291,0.338 -0.801,0.532 -1.529,0.586 l -3.291,0.236 v 6.342 H 7.992 v -5.873 c 0.938,2.037 2.399,3.721 4.385,5.053 1.982,1.331 4.268,1.997 6.852,1.997 2.585,0 5.05,-0.577 7.4,-1.726 V 18.402 l -7.283,-0.547 v 3.601 c 0,1.046 -0.262,1.696 -0.784,1.958 -0.576,0.26 -1.281,0.394 -2.115,0.394 -2.088,0 -3.797,-0.746 -5.131,-2.233 C 9.988,20.088 9.32,18.193 9.32,15.897 V -2.271 l 6.817,-0.314 V -8.773 H -4.852 v 5.953 l 2.582,0.235 c 0.784,0.103 1.358,0.325 1.725,0.665 C -0.18,-1.581 0,-0.939 0,0 Z" /></g><g
           transform="translate(496.3081,71.7549)"
           id="g108"><path
             id="path110"
             style="fill:#ffffff;fill-opacity:1;fill-rule:nonzero;stroke:none"
             d="m 0,0 v 5.952 c -2.871,-4.072 -7.1,-6.109 -12.684,-6.109 -8.095,0 -12.142,4.515 -12.142,13.55 v 15.741 c 0,1.41 -0.651,2.137 -1.959,2.191 l -2.502,0.158 v 6.42 h 13.781 V 15.428 c 0,-2.769 0.393,-4.857 1.174,-6.265 0.783,-1.41 2.402,-2.115 4.859,-2.115 2.452,0 4.422,0.758 5.91,2.272 1.489,1.513 2.235,3.339 2.235,5.481 v 14.175 c 0,0.886 -0.145,1.501 -0.432,1.841 -0.289,0.338 -0.797,0.508 -1.527,0.508 l -2.506,0.158 v 6.42 H 7.988 V 0 c 0,-6.317 -1.527,-10.938 -4.58,-13.863 -3.053,-2.923 -7.674,-4.384 -13.861,-4.384 -6.19,0 -11.004,0.86 -14.449,2.584 v 10.885 l 7.439,0.628 v -3.761 c 0,-1.408 0.651,-2.36 1.957,-2.859 1.305,-0.496 3.106,-0.743 5.404,-0.743 C -3.367,-11.513 0,-7.675 0,0" /></g><g
           transform="translate(496.3081,71.7549)"
           id="g112"><path
             id="path114"
             style="fill:none;stroke:#ffffff;stroke-width:1;stroke-linecap:butt;stroke-linejoin:miter;stroke-miterlimit:10;stroke-dasharray:none;stroke-opacity:1"
             d="m 0,0 v 5.952 c -2.871,-4.072 -7.1,-6.109 -12.684,-6.109 -8.095,0 -12.142,4.515 -12.142,13.55 v 15.741 c 0,1.41 -0.651,2.137 -1.959,2.191 l -2.502,0.158 v 6.42 h 13.781 V 15.428 c 0,-2.769 0.393,-4.857 1.174,-6.265 0.783,-1.41 2.402,-2.115 4.859,-2.115 2.452,0 4.422,0.758 5.91,2.272 1.489,1.513 2.235,3.339 2.235,5.481 v 14.175 c 0,0.886 -0.145,1.501 -0.432,1.841 -0.289,0.338 -0.797,0.508 -1.527,0.508 l -2.506,0.158 v 6.42 H 7.988 V 0 c 0,-6.317 -1.527,-10.938 -4.58,-13.863 -3.053,-2.923 -7.674,-4.384 -13.861,-4.384 -6.19,0 -11.004,0.86 -14.449,2.584 v 10.885 l 7.439,0.628 v -3.761 c 0,-1.408 0.651,-2.36 1.957,-2.859 1.305,-0.496 3.106,-0.743 5.404,-0.743 C -3.367,-11.513 0,-7.675 0,0 Z" /></g><g
           transform="translate(349.1382,120.7461)"
           id="g116"><path
             id="path118"
             style="fill:#ffffff;fill-opacity:1;fill-rule:nonzero;stroke:none"
             d="m 0,0 c 0,3.381 2.74,6.122 6.119,6.123 3.383,0 6.125,-2.74 6.125,-6.123 0,-3.379 -2.742,-6.121 -6.125,-6.121 C 2.74,-6.121 0,-3.382 0,0" /></g><g
           transform="translate(349.1382,120.7461)"
           id="g120"><path
             id="path122"
             style="fill:none;stroke:#ffffff;stroke-width:1;stroke-linecap:butt;stroke-linejoin:miter;stroke-miterlimit:10;stroke-dasharray:none;stroke-opacity:1"
             d="m 0,0 c 0,3.381 2.74,6.122 6.119,6.123 3.383,0 6.125,-2.74 6.125,-6.123 0,-3.379 -2.742,-6.121 -6.125,-6.121 C 2.74,-6.121 0,-3.382 0,0 Z" /></g></g></g></g></svg>
